<svg width="30" height="30" viewBox="0 0 30 30" fill="none" xmlns="http://www.w3.org/2000/svg">
<path d="M28.8 0H1.2C0.53625 0 0 0.53625 0 1.2V28.8C0 29.4638 0.53625 30 1.2 30H28.8C29.4638 30 30 29.4638 30 28.8V1.2C30 0.53625 29.4638 0 28.8 0ZM21.8813 9.51375L13.9838 20.4638C13.8734 20.6178 13.7279 20.7433 13.5593 20.8299C13.3907 20.9165 13.2039 20.9617 13.0144 20.9617C12.8249 20.9617 12.6381 20.9165 12.4695 20.8299C12.3009 20.7433 12.1554 20.6178 12.045 20.4638L7.36875 13.9838C7.22625 13.785 7.36875 13.5075 7.6125 13.5075H9.37125C9.75375 13.5075 10.1175 13.6913 10.3425 14.0063L13.0125 17.7112L18.9075 9.53625C19.1325 9.225 19.4925 9.0375 19.8787 9.0375H21.6375C21.8813 9.0375 22.0238 9.315 21.8813 9.51375Z" fill="black"/>
</svg>
