<svg width="30" height="30" viewBox="0 0 30 30" fill="none" xmlns="http://www.w3.org/2000/svg">
<mask id="path-1-inside-1_79_79" fill="white">
<path d="M28.8 0H1.2C0.53625 0 0 0.53625 0 1.2V28.8C0 29.4638 0.53625 30 1.2 30H28.8C29.4638 30 30 29.4638 30 28.8V1.2C30 0.53625 29.4638 0 28.8 0Z"/>
</mask>
<path d="M28.8 0H1.2C0.53625 0 0 0.53625 0 1.2V28.8C0 29.4638 0.53625 30 1.2 30H28.8C29.4638 30 30 29.4638 30 28.8V1.2C30 0.53625 29.4638 0 28.8 0Z" fill="white"/>
<path d="M28.8 -2H1.2V2H28.8V-2ZM1.2 -2C-0.56832 -2 -2 -0.56832 -2 1.2H2C2 1.64082 1.64082 2 1.2 2V-2ZM-2 1.2V28.8H2V1.2H-2ZM-2 28.8C-2 30.5683 -0.568317 32 1.2 32V28C1.64082 28 2 28.3592 2 28.8H-2ZM1.2 32H28.8V28H1.2V32ZM28.8 32C30.5683 32 32 30.5683 32 28.8H28C28 28.3592 28.3592 28 28.8 28V32ZM32 28.8V1.2H28V28.8H32ZM32 1.2C32 -0.568317 30.5683 -2 28.8 -2V2C28.3592 2 28 1.64082 28 1.2H32Z" fill="black" mask="url(#path-1-inside-1_79_79)"/>
</svg>
